Coordinates
version=1
nRows=19
nColumns=36
inDegrees=yes

Units are S.I. units (second, meters, Newtons, ...)
If the header above contains a line with 'inDegrees', this indicates whether rotational values are in degrees (yes) or radians (no).

endheader
time	pelvis_tilt	pelvis_list	pelvis_rotation	pelvis_tx	pelvis_ty	pelvis_tz	hip_flexion_r	hip_adduction_r	hip_rotation_r	knee_angle_r	knee_angle_r_beta	ankle_angle_r	subtalar_angle_r	mtp_angle_r	hip_flexion_l	hip_adduction_l	hip_rotation_l	knee_angle_l	knee_angle_l_beta	ankle_angle_l	subtalar_angle_l	mtp_angle_l	lumbar_extension	lumbar_bending	lumbar_rotation	arm_flex_r	arm_add_r	arm_rot_r	elbow_flex_r	pro_sup_r	arm_flex_l	arm_add_l	arm_rot_l	elbow_flex_l	pro_sup_l
      1.63333330	      1.31727250	      2.29714077	      4.20255345	     -0.34884829	      1.29744109	     -0.03261485	     -4.17697932	      0.36513372	      2.64865578	      1.88454177	      0.03289146	      7.33694407	    -15.12839449	     -7.49999987	     -2.71562814	      1.53144746	      9.52006778	      1.77984738	      0.03106420	      8.74783613	    -10.44023055	     -7.49999987	    -13.61755267	     -1.44143191	      1.11905507	      4.41696641	     -1.74189695	     -1.27924037	     29.82497279	     89.13379486	      2.14360184	     -6.78141600	      2.63264209	     39.05543737	     98.62167561
      1.65000000	      1.38946640	      2.32378039	      4.16926567	     -0.34864316	      1.29777373	     -0.03248115	     -4.42002428	      0.38007557	      2.54319431	      1.87610023	      0.03274413	      7.26686147	    -15.12091876	     -7.49999987	     -2.83733038	      1.52938855	      9.30084496	      1.66508178	      0.02906116	      8.92839782	     -9.76616304	     -7.49999987	    -13.56931036	     -1.52298917	      1.01420571	      4.35350852	     -1.66549602	     -0.78382977	     29.52893448	     86.58591596	      1.83974011	     -6.95121092	      3.05244395	     39.32096212	     95.61561701
      1.66666670	      1.36157846	      2.32613294	      4.13463448	     -0.35585993	      1.29761637	     -0.03455909	     -4.46206330	      0.38834977	      2.53652651	      1.88224076	      0.03285130	      7.26589267	    -15.12349163	     -7.49999987	     -2.79042160	      1.54364649	      9.30626621	      1.64618339	      0.02873132	      8.93077623	     -9.76393044	     -7.49999987	    -13.56129518	     -1.52796905	      1.01761219	      4.35465964	     -1.65990694	     -0.78269249	     29.53212825	     86.58665664	      1.83603641	     -6.95344539	      3.05162529	     39.32082012	     95.61622987
      1.68333330	      1.27804631	      2.40304243	      4.21888112	     -0.35561868	      1.29780503	     -0.03446931	     -4.33472244	      0.32591546	      2.37058186	      2.05498369	      0.03586623	      7.14415908	    -15.40719030	     -7.49999987	     -2.71123392	      1.64363000	      9.56801772	      1.64309611	      0.02867744	      9.00545280	     -9.56459600	     -7.49999987	    -13.52718491	     -1.62802646	      0.80393710	      4.41844695	     -1.57626373	     -1.05147683	     29.72236212	     89.18272490	      1.74672367	     -6.84004155	      1.99378747	     39.57584771	     98.97980066
      1.70000000	      1.23111229	      2.41936532	      4.23853892	     -0.34911819	      1.29781102	     -0.03258402	     -4.35735179	      0.32484772	      2.36791974	      2.06728420	      0.03608092	      7.14120369	    -15.40839827	     -7.49999987	     -2.76173482	      1.61105614	      9.56583595	      1.66368613	      0.02903680	      9.00464606	     -9.56592288	     -7.49999987	    -13.52889531	     -1.62694105	      0.80499437	      4.42527383	     -1.57531850	     -1.05131157	     29.72432906	     89.18282452	      1.75027390	     -6.83812398	      1.99408644	     39.57628497	     98.97962775
      1.71666670	      1.28001313	      2.38856074	      4.27694576	     -0.35563275	      1.29770490	     -0.03443530	     -4.39875971	      0.35024247	      2.23422740	      2.11994780	      0.03700007	      7.09021820	    -15.47457751	     -7.49999987	     -2.93285985	      1.53992968	      9.44394463	      1.75683182	      0.03066250	      9.04961916	     -9.64305093	     -7.49999987	    -13.39021488	     -1.66061486	      0.80371583	      4.35748287	     -1.50628674	     -1.03582630	     29.72424659	     89.18682947	      1.73357143	     -6.89115023	      1.99052736	     39.57461500	     98.97839921
      1.73333330	      1.25993097	      2.39233266	      4.29606762	     -0.34904143	      1.29780139	     -0.03252501	     -4.39332413	      0.35548067	      2.23250353	      2.12292500	      0.03705203	      7.09097321	    -15.47692841	     -7.49999987	     -2.98539940	      1.53031954	      9.44443432	      1.77822419	      0.03103587	      9.05131609	     -9.64411951	     -7.49999987	    -13.39406613	     -1.65739453	      0.80428929	      4.36171203	     -1.50526154	     -1.03545063	     29.72542738	     89.18692414	      1.73532029	     -6.89001121	      1.99095474	     39.57474441	     98.97828716
      1.75000000	      1.28356553	      2.35362970	      4.40404875	     -0.34868524	      1.29782805	     -0.03244248	     -4.55124879	      0.44878550	      2.27490381	      1.96408905	      0.03427982	      6.98863911	    -16.05854367	     -7.49999987	     -3.03064286	      1.45288475	      9.65586549	      1.82134873	      0.03178853	      9.53989159	     -9.54917175	     -7.49999987	    -13.17009512	     -1.71249218	      0.68631836	      4.19254954	     -1.39807348	     -0.59828907	     29.87190717	     88.97391579	      1.40010928	     -7.10675365	      2.17784729	     39.79833089	     98.59564054
      1.76666670	      1.28921233	      2.37764091	      4.39408344	     -0.34896689	      1.30056855	     -0.03243507	     -4.55178216	      0.42806416	      2.24632058	      1.79061267	      0.03125209	      7.08723578	    -16.17613937	     -7.49999987	     -3.10362775	      1.48306747	      9.69543976	      1.68464600	      0.02940262	      9.74802790	     -9.21856092	     -7.49999987	    -13.00745647	     -1.80694094	      0.73907991	      4.13396790	     -1.34154729	     -0.45958638	     29.89413023	     88.80193275	      1.27379364	     -7.14588680	      1.99348107	     39.86805558	     99.15389360
      1.78333330	      1.26414786	      2.36577377	      4.43629199	     -0.34891628	      1.29765313	     -0.03233169	     -4.47525310	      0.43826378	      2.34141303	      1.63466077	      0.02853021	      7.26521044	    -16.22017458	     -7.49999987	     -3.12701548	      1.47015832	      9.90947468	      1.60360506	      0.02798819	      9.93562997	     -9.16500307	     -7.49999987	    -12.77257500	     -1.86728722	      0.76043767	      4.03532019	     -1.33443593	     -0.20979317	     29.69257444	     88.55323777	      1.18253649	     -7.22839922	      2.03949214	     39.86454927	     99.06880827
      1.80000000	      1.23351274	      2.37655748	      4.50408841	     -0.34920586	      1.29732192	     -0.03252306	     -4.46424549	      0.42078617	      2.32134478	      1.52449192	      0.02660740	      7.48531466	    -16.01054218	     -7.49999987	     -3.14995988	      1.46807220	     10.23496151	      1.52143280	      0.02655401	     10.05164527	     -9.16460972	     -7.49999987	    -12.54422502	     -1.91730377	      0.85377759	      4.05460336	     -1.41889131	      0.80083619	     29.46068954	     85.12708662	      1.29767630	     -7.49784750	      3.54869287	     39.61861156	     94.57901313
      1.81666670	      1.46619856	      2.41425954	      4.59050578	     -0.34918594	      1.29783360	     -0.03244696	     -4.81633518	      0.42469711	      2.17765639	      1.43430759	      0.02503339	      7.50155022	    -15.67038339	     -7.49999987	     -3.54956947	      1.40273608	     10.11115332	      1.55011613	      0.02705463	     10.22724919	     -9.03751913	     -7.49999987	    -12.80106838	     -1.98246311	      0.85284007	      3.98697753	     -1.33847049	      0.77317652	     29.75886827	     82.82211055	      1.43407696	     -7.44580652	      3.48599626	     39.47366093	     91.51741527
      1.83333330	      1.39966447	      2.45331216	      4.65068887	     -0.35634596	      1.29765614	     -0.03460203	     -4.73901497	      0.33745360	      2.20619666	      1.41583948	      0.02471106	      7.45710460	    -15.65142913	     -7.49999987	     -3.60530418	      1.42025659	      9.97347524	      1.60060876	      0.02793589	     10.20516490	     -9.15147875	     -7.49999987	    -12.71036924	     -1.96250947	      0.81673064	      4.11346490	     -1.37169116	      0.77422857	     29.79658151	     82.84704328	      1.58849443	     -7.42839717	      3.49900302	     39.52145188	     91.55529194
      1.85000000	      1.20882974	      2.52521326	      4.72390894	     -0.35597309	      1.29748793	     -0.03459710	     -4.44465262	      0.24263487	      2.24024080	      1.34245986	      0.02343034	      7.08224403	    -15.90851735	     -7.49999987	     -3.32595314	      1.50448826	     10.21380063	      1.80616285	      0.03152349	      9.45789033	    -10.41155857	     -7.49999987	    -12.76677545	     -2.04852796	      0.94529955	      4.33013088	     -1.36372526	      0.09171713	     29.63327490	     88.30091541	      1.95863548	     -7.38046873	      3.01793338	     39.28547494	     99.24132043
      1.86666670	      1.23235889	      2.52392070	      4.84407575	     -0.34926184	      1.29720001	     -0.03263279	     -4.56681850	      0.29183341	      2.28845559	      1.27091869	      0.02218172	      6.97981044	    -15.83261327	     -7.49999987	     -3.40425530	      1.43356903	      9.85761050	      2.01197023	      0.03511550	      9.35110826	    -10.58722948	     -7.49999987	    -12.79928081	     -2.02717087	      0.86039124	      4.21351987	     -1.35407525	      0.07258897	     29.58670491	     88.30885972	      1.94396465	     -7.39981693	      3.03408109	     39.27850764	     99.23676317
      1.88333330	      1.15485722	      2.44665370	      4.79786896	     -0.34873249	      1.29709640	     -0.03270565	     -4.51034513	      0.41108432	      2.03929193	      1.18059428	      0.02060526	      7.14658172	    -15.52854742	     -7.49999987	     -3.31371215	      1.34938115	      9.79376604	      1.93308936	      0.03373877	      9.38703341	    -10.64727994	     -7.49999987	    -12.61282735	     -1.94269864	      0.92160159	      4.11511618	     -1.45242695	      0.41926997	     29.70266017	     87.34626796	      1.82481085	     -7.44966828	      3.52425557	     39.32287186	     98.01207500
      1.90000000	      1.13783957	      2.40063250	      4.83953372	     -0.34894946	      1.29954066	     -0.03281246	     -4.57235184	      0.50814456	      2.01219411	      1.16592063	      0.02034915	      7.34277819	    -15.42350173	     -7.49999987	     -3.25540887	      1.29577880	      9.80393502	      1.84129345	      0.03213663	      9.54237636	    -10.09268559	     -7.49999987	    -12.49864509	     -1.92884402	      0.76864683	      4.11145426	     -1.40690976	      0.30355548	     29.71416457	     88.15492532	      1.55289701	     -7.37006674	      2.83646190	     39.54664149	     99.25520335
      1.91666670	      1.03522042	      2.32062569	      4.82062260	     -0.34872237	      1.29929806	     -0.03288621	     -4.46099440	      0.56997647	      1.91736428	      1.15821752	      0.02021471	      7.81494952	    -15.05429580	     -7.49999987	     -3.11366843	      1.25253858	      9.80859289	      1.68027695	      0.02932637	      9.76414610	     -9.64957758	     -7.49999987	    -12.20658289	     -1.85349848	      0.84543651	      4.01597512	     -1.44942045	      0.55724792	     29.70192990	     86.17661801	      1.45247185	     -7.41643702	      3.30029861	     39.44558174	     96.48412822
      1.93333330	      1.02410219	      2.30083462	      4.82195979	     -0.34917410	      1.29926958	     -0.03296382	     -4.41864505	      0.56036812	      1.97082394	      1.06857865	      0.01865022	      7.93708684	    -15.36779788	     -7.49999987	     -3.02557157	      1.29060432	      9.92543027	      1.50871049	      0.02633197	      9.82916697	     -9.44363062	     -7.49999987	    -12.07621955	     -1.86067407	      0.84809524	      3.98432494	     -1.53127388	      1.20695228	     29.77048898	     84.84123407	      1.43958160	     -7.54306076	      4.03088827	     39.39307427	     94.56305483
